<?xml version="1.0" standalone="no"?>
<!DOCTYPE svg PUBLIC "-//W3C//DTD SVG 20010904//EN"
 "http://www.w3.org/TR/2001/REC-SVG-20010904/DTD/svg10.dtd">
<svg version="1.0" xmlns="http://www.w3.org/2000/svg"
 width="512.000000pt" height="512.000000pt" viewBox="0 0 512.000000 512.000000"
 preserveAspectRatio="xMidYMid meet">
<metadata>
Created by potrace 1.11, written by Peter Selinger 2001-2013
</metadata>
<g transform="translate(0.000000,512.000000) scale(0.100000,-0.100000)"
fill="#000000" stroke="none">
<path d="M2660 4542 l-25 -3 2 -1577 c0 -867 2 -1582 2 -1588 2 -22 46 -9 77
23 16 17 37 33 44 35 8 2 36 26 62 53 l48 50 0 1503 c0 994 -3 1502 -10 1503
-35 3 -179 4 -200 1z"/>
<path d="M2979 4520 c-4 -102 -3 -1774 1 -1781 3 -5 21 11 40 34 49 59 172
177 185 177 6 0 24 14 40 30 16 17 35 30 42 30 7 0 13 5 13 11 0 5 4 8 9 5 10
-6 61 16 61 27 0 4 9 7 20 7 11 0 20 3 20 8 0 12 50 31 73 27 11 -3 24 0 28 6
3 6 26 11 49 12 24 1 45 7 47 12 4 13 213 7 213 -6 0 -5 15 -7 33 -6 17 2 50
-5 73 -15 23 -10 50 -19 60 -21 37 -6 154 -70 154 -84 0 -8 5 -11 11 -8 6 4
27 -9 46 -29 20 -20 40 -36 45 -36 4 0 8 -4 8 -10 0 -5 20 -28 45 -51 25 -23
43 -45 40 -49 -2 -4 4 -15 15 -25 11 -10 20 -24 20 -32 0 -7 5 -13 10 -13 6 0
10 -9 10 -20 0 -11 5 -20 10 -20 6 0 10 -9 10 -20 0 -11 4 -20 10 -20 5 0 7
-6 4 -14 -3 -7 2 -16 10 -19 9 -4 13 -15 11 -27 -2 -11 0 -20 6 -20 5 0 9 -15
9 -34 0 -19 4 -37 8 -40 5 -3 9 -32 10 -66 0 -33 4 -65 7 -70 3 -6 3 -10 -2
-10 -8 0 -9 -83 -2 -105 2 -5 -3 -21 -10 -34 -7 -13 -11 -34 -8 -48 2 -14 -2
-30 -10 -39 -8 -8 -12 -21 -9 -30 3 -8 -1 -17 -9 -20 -8 -4 -13 -10 -10 -14 5
-9 -35 -93 -47 -98 -5 -2 -8 -10 -8 -18 0 -8 -9 -23 -20 -34 -12 -12 -18 -25
-15 -30 3 -5 -4 -11 -15 -15 -11 -3 -20 -12 -20 -20 0 -8 -9 -17 -20 -20 -11
-3 -20 -10 -20 -15 0 -11 -87 -93 -104 -99 -6 -2 -21 -13 -33 -24 -13 -11 -23
-17 -23 -13 0 4 -7 0 -16 -8 -8 -9 -20 -14 -25 -11 -5 4 -9 3 -9 -2 0 -10 -49
-33 -70 -33 -9 0 -21 -5 -28 -12 -7 -7 -12 -8 -12 -4 0 5 -10 2 -22 -6 -13 -8
-39 -14 -58 -13 -19 0 -38 -3 -41 -8 -10 -13 -191 -14 -214 -1 -11 6 -33 10
-50 10 -16 -1 -33 2 -36 7 -3 4 -17 8 -30 9 -26 0 -110 37 -121 53 -4 5 -8 6
-8 1 0 -5 -8 -2 -17 7 -10 8 -31 19 -46 23 -16 3 -40 17 -54 30 -14 13 -32 24
-39 24 -7 0 -24 10 -36 23 -13 12 -62 59 -108 104 l-85 82 1 -102 c2 -157 3
-165 17 -179 8 -7 19 -24 26 -37 7 -12 15 -20 18 -18 3 3 25 -14 50 -39 25
-24 49 -44 54 -44 4 0 14 -6 21 -13 7 -7 45 -28 83 -47 39 -19 73 -39 77 -45
4 -5 8 -7 8 -3 0 4 12 1 26 -7 15 -7 33 -11 42 -8 10 4 13 2 8 -5 -5 -8 1 -12
16 -13 13 0 32 -3 43 -6 11 -3 39 -7 63 -10 23 -3 42 -8 42 -12 0 -11 269 -4
325 9 28 6 62 13 77 14 15 2 33 7 40 13 7 6 21 9 31 8 10 -2 21 3 24 11 3 8 9
12 13 9 5 -3 15 2 24 11 9 8 20 12 26 9 5 -3 10 -3 10 2 0 4 14 14 31 22 44
19 109 63 109 73 0 4 7 8 15 8 15 0 207 185 199 193 -2 2 9 17 24 34 16 16 35
44 43 61 8 18 17 32 21 32 4 0 5 9 3 20 -2 11 1 19 8 17 7 -1 11 5 9 14 -1 9
4 19 13 22 8 4 12 13 9 22 -3 8 -1 15 5 15 6 0 11 11 11 25 0 14 5 25 11 25 5
0 9 8 8 18 -3 30 1 43 10 38 5 -3 8 10 6 30 -1 20 3 38 9 40 14 6 14 356 0
376 -6 7 -10 24 -9 38 0 14 -5 31 -12 38 -7 7 -10 18 -7 26 3 7 -2 19 -10 26
-9 7 -13 16 -10 21 6 11 -17 69 -28 69 -5 0 -7 3 -6 8 3 11 -36 92 -44 92 -5
0 -8 7 -8 15 0 8 -14 29 -30 47 -17 17 -28 33 -26 35 6 7 -183 193 -197 193
-7 0 -19 9 -27 19 -7 11 -17 18 -22 15 -4 -3 -11 2 -14 10 -3 9 -10 13 -15 10
-5 -3 -9 -1 -9 3 0 7 -72 43 -85 43 -3 -1 -13 6 -21 15 -9 8 -20 13 -25 10 -5
-4 -9 -1 -9 4 0 6 -11 11 -25 11 -14 0 -25 5 -25 10 0 6 -18 10 -40 10 -22 0
-40 4 -40 9 0 6 -19 9 -41 9 -23 0 -44 4 -48 9 -7 11 -281 11 -299 0 -6 -5
-30 -9 -52 -9 -22 0 -40 -4 -40 -9 0 -5 -11 -9 -24 -9 -14 0 -28 -4 -31 -10
-3 -5 -17 -10 -31 -10 -13 0 -24 -5 -24 -11 0 -6 -6 -9 -14 -6 -8 3 -17 -1
-20 -9 -3 -8 -9 -13 -13 -12 -10 3 -86 -33 -94 -45 -4 -5 -9 -5 -12 -1 -3 5
-5 305 -5 667 1 362 -2 660 -5 663 -3 3 -51 7 -106 7 l-101 2 -1 -25z"/>
<path d="M1367 3337 c-1 -5 -21 -9 -45 -10 -23 -1 -42 -5 -42 -9 0 -5 -15 -8
-34 -8 -19 0 -38 -5 -42 -11 -3 -6 -14 -9 -24 -6 -11 3 -21 -1 -24 -9 -3 -8
-9 -13 -13 -12 -10 3 -126 -54 -134 -66 -4 -5 -11 -6 -16 -3 -5 3 -20 -7 -33
-24 -14 -16 -30 -29 -36 -29 -16 0 -225 -211 -218 -221 2 -4 -5 -13 -16 -19
-11 -6 -20 -19 -20 -28 0 -10 -9 -24 -19 -32 -11 -7 -18 -17 -15 -21 2 -4 0
-10 -6 -14 -5 -3 -10 -15 -10 -26 0 -11 -4 -17 -10 -14 -5 3 -10 -3 -10 -15 0
-11 -4 -28 -9 -38 -10 -17 -23 -55 -21 -60 0 -1 -7 -16 -15 -32 -9 -17 -13
-35 -10 -41 4 -5 1 -16 -5 -24 -7 -8 -12 -47 -13 -90 0 -41 -4 -75 -9 -75 -4
0 -8 -20 -8 -45 0 -25 4 -45 9 -45 4 0 8 -28 8 -63 0 -34 6 -73 12 -86 7 -12
10 -29 7 -36 -3 -8 0 -20 7 -27 7 -7 12 -20 12 -28 0 -8 5 -26 12 -39 6 -14
10 -28 7 -33 -3 -4 0 -8 6 -8 6 0 9 -4 5 -9 -3 -5 1 -16 9 -23 13 -14 31 -59
27 -67 -2 -2 4 -8 13 -13 9 -5 13 -15 9 -25 -4 -11 -3 -14 5 -9 7 4 12 1 12
-9 0 -10 13 -29 30 -45 16 -15 27 -30 25 -32 -8 -8 190 -205 202 -201 7 3 17
-5 23 -17 6 -11 15 -18 19 -16 4 3 17 -2 27 -12 10 -9 42 -28 69 -42 28 -14
53 -29 57 -35 4 -5 8 -6 8 -2 0 4 10 2 23 -5 12 -7 30 -11 40 -9 9 1 17 -4 17
-11 0 -9 10 -13 30 -12 17 1 33 -2 36 -7 3 -5 25 -9 50 -9 24 0 44 -4 44 -8 0
-4 65 -8 144 -8 80 0 142 4 140 8 -5 8 32 12 69 9 9 -1 17 2 17 6 0 5 17 10
37 11 21 2 40 8 44 13 3 6 9 10 13 9 4 -1 17 1 29 5 12 4 25 7 30 6 4 -1 7 3
7 9 0 5 9 10 20 10 11 0 20 5 20 10 0 14 27 13 36 -1 3 -6 1 -15 -6 -19 -8 -5
-13 -24 -12 -45 1 -19 -2 -33 -7 -31 -5 3 -11 -7 -14 -22 -6 -27 -72 -104
-112 -129 -51 -33 -116 -63 -135 -63 -11 0 -20 -4 -20 -10 0 -5 -20 -10 -45
-10 -25 0 -45 -4 -45 -8 0 -10 -256 -10 -266 1 -4 4 -24 7 -45 7 -21 0 -41 4
-44 10 -3 5 -17 10 -31 10 -13 0 -24 5 -24 11 0 6 -6 9 -14 6 -7 -3 -23 1 -34
8 -10 8 -22 12 -25 9 -3 -3 -12 3 -19 15 -7 12 -19 21 -26 21 -17 0 -55 22
-65 37 -4 7 -12 13 -17 13 -14 0 -50 -38 -50 -53 0 -7 -11 -21 -25 -31 -14
-10 -25 -27 -25 -38 0 -11 -4 -16 -10 -13 -5 3 -10 -2 -10 -13 0 -22 43 -68
71 -77 10 -4 19 -11 19 -16 0 -6 5 -7 11 -4 5 4 18 -3 28 -14 10 -12 26 -21
34 -21 9 0 33 -9 53 -20 20 -12 41 -19 48 -17 6 2 17 -3 25 -10 7 -8 19 -12
27 -9 7 3 17 -1 23 -8 6 -7 27 -12 47 -11 19 2 37 -2 40 -9 6 -14 334 -12 344
3 3 6 23 9 44 7 23 -1 40 2 43 10 2 7 12 11 21 10 9 -2 32 5 50 16 18 10 41
18 52 18 11 0 20 5 20 10 0 6 9 10 20 10 10 0 24 9 30 20 6 11 14 19 18 18 12
-4 92 51 92 63 0 5 3 9 8 7 9 -5 71 59 65 66 -3 3 4 15 16 27 12 13 21 29 21
36 0 7 5 13 11 13 6 0 9 6 6 14 -3 8 1 17 9 20 9 3 13 10 10 15 -3 5 1 14 8
20 8 7 13 23 10 36 -2 13 0 27 6 30 6 4 10 109 10 288 l0 282 -118 -122 c-113
-118 -153 -150 -171 -139 -5 3 -12 -1 -15 -10 -3 -8 -10 -13 -14 -10 -5 3 -23
-4 -40 -15 -18 -10 -40 -19 -50 -19 -10 0 -23 -5 -30 -12 -7 -7 -12 -9 -12 -5
0 4 -10 2 -22 -5 -13 -6 -36 -13 -53 -13 -16 -1 -37 -5 -45 -9 -27 -12 -209
-12 -214 0 -2 6 -23 10 -46 9 -26 -1 -44 3 -47 11 -2 7 -13 11 -24 9 -10 -2
-21 0 -24 6 -4 5 -17 9 -31 9 -13 0 -24 5 -24 10 0 6 -9 10 -20 10 -11 0 -20
5 -20 10 0 6 -9 10 -20 10 -11 0 -20 5 -20 11 0 5 -4 8 -9 5 -4 -3 -16 3 -26
14 -10 11 -23 20 -30 20 -6 0 -41 31 -79 70 -37 39 -71 70 -77 70 -5 0 -9 7
-9 15 0 8 -5 15 -11 15 -5 0 -8 4 -5 9 3 4 -3 16 -14 26 -11 10 -20 24 -20 32
0 7 -5 13 -11 13 -6 0 -8 7 -5 15 3 9 -1 18 -10 22 -8 3 -13 11 -10 18 3 8 -2
16 -10 19 -9 3 -13 10 -10 15 3 5 0 14 -8 20 -8 7 -12 21 -9 31 3 11 1 20 -4
20 -6 0 -10 14 -11 31 0 17 -5 36 -10 42 -13 16 -13 289 0 304 5 6 10 25 10
42 1 17 5 31 10 31 4 0 8 11 8 24 0 14 5 28 11 31 6 4 8 13 5 21 -3 8 1 14 9
14 8 0 12 8 10 19 -2 11 3 25 11 32 8 6 22 28 31 48 16 34 203 233 203 216 0
-5 13 4 29 19 16 15 32 28 35 27 10 -1 81 33 87 43 4 5 14 6 23 3 10 -4 19 -1
22 6 3 8 15 13 27 12 12 -1 27 4 34 10 6 7 24 11 40 9 15 -1 33 2 39 7 12 10
227 14 242 5 5 -3 28 -7 53 -11 133 -17 300 -105 413 -217 26 -26 57 -48 67
-48 17 0 19 9 19 110 l0 111 -51 50 c-28 28 -53 48 -56 45 -3 -3 -16 6 -30 20
-13 13 -28 22 -33 19 -4 -3 -10 -2 -12 2 -5 13 -125 73 -132 66 -3 -4 -6 -1
-6 5 0 7 -14 12 -31 12 -17 0 -28 4 -24 10 4 6 -8 10 -29 10 -19 0 -37 4 -40
8 -3 5 -24 9 -47 10 -24 1 -45 6 -48 10 -8 11 -280 10 -284 -1z"/>
<path d="M2500 3268 c0 -4 -7 -8 -15 -8 -8 0 -34 -19 -57 -43 -24 -23 -54 -48
-68 -55 -14 -7 -34 -25 -44 -39 -19 -25 -19 -54 -19 -904 0 -484 -4 -876 -8
-873 -5 3 -9 -13 -9 -36 0 -29 -4 -39 -12 -34 -7 5 -9 0 -6 -14 3 -11 0 -29
-8 -40 -7 -11 -11 -22 -7 -25 3 -4 -2 -9 -11 -13 -9 -3 -14 -9 -11 -14 2 -4
-5 -16 -15 -28 -11 -12 -20 -24 -20 -28 0 -10 -78 -93 -83 -88 -2 2 -10 -7
-17 -21 -7 -14 -19 -25 -27 -25 -7 0 -13 -5 -13 -10 0 -6 -11 -15 -25 -20 -14
-5 -25 -14 -25 -20 0 -5 -9 -10 -19 -10 -10 0 -22 -7 -25 -16 -3 -8 -11 -12
-17 -8 -6 3 -14 2 -18 -2 -7 -10 -92 -50 -101 -47 -3 1 -9 -2 -15 -7 -5 -4
-35 -13 -65 -20 -30 -7 -62 -15 -70 -19 -8 -4 -35 -8 -59 -10 -25 -1 -49 -5
-55 -9 -17 -11 -179 -10 -201 1 -10 6 -43 10 -72 9 -29 0 -56 4 -59 9 -3 5
-21 9 -40 9 -19 0 -34 5 -34 10 0 6 -16 10 -35 10 -19 0 -35 5 -35 10 0 6 -6
10 -12 9 -21 -3 -78 13 -78 22 0 4 -16 13 -35 20 -19 7 -35 17 -35 22 0 4 -4
6 -9 3 -5 -3 -14 1 -21 9 -7 8 -16 13 -20 10 -4 -3 -20 7 -34 22 -15 15 -37
32 -49 38 -19 9 -25 7 -40 -12 -10 -12 -17 -25 -17 -28 1 -3 -13 -19 -30 -35
-16 -15 -30 -33 -30 -40 0 -6 -10 -20 -22 -31 -21 -16 -21 -18 -5 -19 11 0 32
-14 47 -30 15 -17 35 -30 44 -30 9 0 16 -5 16 -10 0 -6 18 -18 40 -27 22 -10
40 -21 40 -26 0 -4 4 -6 9 -2 5 3 17 -2 25 -11 9 -8 16 -13 16 -10 0 3 16 -3
35 -14 20 -11 42 -20 50 -20 9 0 23 -4 33 -9 27 -15 55 -24 75 -25 10 -1 21
-5 25 -11 4 -5 21 -10 37 -10 17 0 46 -5 65 -11 48 -16 454 -16 495 0 17 7 42
12 58 11 15 -1 27 3 27 10 0 6 13 10 32 9 18 -1 35 1 38 4 9 12 49 32 63 32
19 0 67 24 67 33 0 5 5 5 11 1 6 -3 15 0 20 7 4 8 12 14 16 15 23 2 64 26 69
39 3 8 10 13 14 10 4 -2 18 4 30 15 13 11 26 20 30 20 13 0 180 169 180 181 0
6 8 19 18 28 22 21 36 43 70 114 16 31 32 54 36 50 3 -4 5 10 2 31 -3 25 0 39
9 42 8 3 12 15 9 29 -2 13 2 25 9 28 9 3 12 27 10 81 -1 42 3 76 8 76 5 0 9
362 9 913 0 806 -2 914 -15 914 -8 0 -15 -4 -15 -9z"/>
<path d="M1370 2998 c0 -4 -11 -8 -24 -8 -14 0 -28 -4 -31 -10 -3 -5 -14 -10
-23 -10 -19 0 -125 -51 -130 -62 -2 -5 -10 -8 -18 -8 -8 0 -14 -4 -14 -10 0
-5 -5 -10 -11 -10 -17 0 -125 -112 -133 -137 -4 -11 -13 -24 -21 -26 -7 -3
-21 -23 -31 -44 -10 -21 -23 -41 -28 -45 -6 -4 -7 -10 -4 -14 4 -3 0 -13 -8
-21 -8 -8 -12 -19 -8 -24 3 -6 0 -17 -7 -25 -7 -9 -12 -31 -11 -49 2 -18 -2
-36 -8 -40 -13 -8 -13 -192 -1 -200 6 -3 9 -24 9 -46 0 -25 5 -45 13 -50 8 -5
11 -9 6 -9 -4 0 0 -11 9 -25 9 -14 14 -28 10 -32 -3 -4 1 -15 11 -25 9 -10 13
-18 10 -18 -7 0 3 -12 48 -63 13 -14 20 -28 17 -32 -7 -7 89 -105 103 -105 7
0 22 -12 36 -26 21 -23 87 -59 114 -64 6 -1 13 -7 17 -15 5 -7 17 -11 28 -8
11 3 20 1 20 -4 0 -5 12 -10 27 -11 15 -1 29 -6 32 -11 8 -11 280 -11 287 1 3
4 16 8 30 8 13 0 24 5 24 10 0 6 11 10 25 10 14 0 25 5 25 12 0 6 3 8 6 5 4
-3 16 -1 28 5 11 7 24 11 29 10 4 -1 7 3 7 8 0 6 7 10 16 10 9 0 30 15 46 33
17 17 27 25 23 17 -4 -8 20 14 54 50 91 96 102 110 96 120 -3 5 3 15 15 22 11
7 20 20 20 29 0 8 3 19 8 23 4 4 7 11 7 14 2 20 18 52 26 52 6 0 8 4 5 8 -3 5
1 21 9 36 8 14 10 24 5 21 -14 -9 -12 29 1 42 14 14 13 182 -2 199 -6 7 -9 26
-8 42 2 16 -2 36 -9 44 -7 9 -10 22 -7 30 4 9 -1 18 -9 21 -9 4 -13 13 -10 22
4 9 1 15 -9 15 -10 0 -13 7 -10 20 3 11 0 20 -6 20 -6 0 -11 6 -11 13 0 8 -11
24 -25 37 -14 13 -25 29 -25 36 0 7 -8 19 -19 26 -10 7 -20 18 -22 23 -2 6 -7
9 -11 7 -5 -1 -8 5 -8 15 0 9 -3 13 -6 10 -4 -3 -15 5 -26 18 -11 14 -26 25
-34 25 -8 0 -13 4 -10 9 5 8 -13 16 -38 19 -5 0 -12 4 -15 9 -3 4 -28 19 -56
33 -27 14 -52 27 -55 30 -3 3 -21 7 -40 8 -19 2 -37 6 -40 11 -7 10 -280 10
-280 -1z m256 -219 c8 -6 14 -9 14 -5 0 4 13 0 29 -8 16 -9 31 -12 35 -9 3 4
6 -1 6 -11 0 -9 4 -15 10 -11 5 3 19 0 31 -7 37 -22 119 -106 119 -123 0 -8 3
-15 8 -15 11 0 42 -59 42 -81 0 -10 5 -19 11 -19 6 0 8 -16 6 -40 -2 -24 1
-44 8 -50 13 -11 13 -55 -2 -105 -4 -16 -8 -39 -8 -50 0 -11 -3 -22 -7 -25 -4
-3 -9 -17 -11 -30 -2 -13 -9 -26 -15 -28 -7 -2 -12 -8 -12 -13 0 -6 6 -7 13
-4 6 4 2 -2 -10 -13 -13 -11 -23 -24 -23 -30 0 -30 -142 -145 -183 -147 -4 0
-11 -5 -15 -11 -4 -6 -17 -10 -29 -9 -12 1 -24 -3 -26 -9 -6 -15 -186 -13
-214 2 -12 7 -26 11 -30 10 -20 -5 -131 61 -175 104 -26 26 -47 50 -46 52 2 3
-4 14 -12 24 -26 32 -40 61 -40 82 0 11 -5 20 -11 20 -6 0 -8 16 -6 41 3 26 0
42 -8 45 -14 6 -14 75 0 95 6 8 10 28 9 44 -1 17 3 36 8 42 6 7 8 20 4 28 -3
9 1 18 9 21 8 4 15 14 15 25 0 10 9 23 20 29 11 6 18 15 15 20 -5 8 89 110
103 110 4 0 33 14 66 30 32 16 62 27 67 24 5 -3 9 -1 9 5 0 14 22 16 123 14
49 -2 96 -8 103 -14z"/>
<path d="M3570 2998 c0 -4 -11 -8 -24 -8 -14 0 -28 -4 -31 -10 -3 -5 -14 -10
-24 -10 -21 0 -71 -22 -71 -32 0 -4 -7 -5 -15 -2 -8 4 -15 1 -15 -5 0 -6 -9
-11 -20 -11 -11 0 -25 -9 -32 -20 -7 -11 -19 -20 -26 -20 -18 0 -132 -113
-132 -131 0 -8 -9 -20 -19 -26 -11 -7 -28 -29 -37 -50 -10 -21 -25 -49 -33
-63 -9 -13 -16 -31 -16 -40 -1 -8 -6 -24 -12 -35 -6 -11 -9 -31 -7 -44 3 -14
-2 -28 -12 -36 -12 -8 -13 -14 -6 -19 7 -4 8 -15 3 -29 -5 -12 -5 -31 -1 -42
4 -11 5 -24 2 -29 -11 -19 -7 -76 6 -76 9 0 12 -13 10 -39 -1 -22 4 -46 11
-55 8 -9 10 -16 7 -16 -4 0 0 -10 8 -21 8 -12 12 -28 9 -35 -3 -8 0 -14 6 -14
6 0 11 -9 11 -20 0 -11 4 -20 9 -20 8 0 48 -57 60 -85 9 -21 104 -114 115
-112 6 1 10 -3 9 -10 -2 -8 4 -10 15 -6 9 3 14 3 10 -2 -9 -9 140 -88 164 -87
9 0 22 -6 28 -13 6 -8 18 -11 26 -8 8 3 20 1 27 -5 15 -12 277 -13 277 -1 0 5
9 9 20 9 10 0 29 4 42 9 32 13 52 19 59 17 4 0 16 7 26 17 11 9 23 14 26 10 4
-3 7 -1 7 5 0 7 6 12 13 12 7 0 26 12 42 28 16 15 33 26 37 25 3 -2 18 11 32
27 13 17 28 30 31 30 9 0 44 42 45 53 0 4 5 13 10 20 30 36 81 120 76 125 -3
3 1 16 10 30 8 13 13 30 10 37 -3 8 0 15 6 17 6 2 11 22 13 45 1 22 6 46 10
54 14 22 11 162 -3 178 -8 8 -11 22 -9 33 3 10 -1 25 -10 33 -8 8 -11 19 -8
25 3 5 -1 19 -9 31 -8 12 -12 28 -9 35 3 8 0 14 -6 14 -6 0 -11 7 -11 16 0 9
-9 25 -21 35 -11 9 -21 21 -21 26 -1 19 -11 32 -19 27 -5 -3 -9 3 -9 13 0 19
-110 136 -110 118 -1 -6 -9 0 -19 12 -10 12 -21 19 -25 16 -3 -4 -6 1 -6 11 0
9 -4 15 -9 11 -5 -3 -16 2 -25 11 -9 8 -20 12 -26 9 -5 -3 -10 -3 -10 2 0 10
-49 33 -71 33 -10 0 -21 5 -24 10 -3 6 -17 10 -31 10 -13 0 -24 4 -24 8 0 4
-63 8 -140 8 -77 0 -140 -3 -140 -8z m250 -219 c5 -6 15 -9 23 -6 9 3 21 -1
27 -8 7 -8 15 -14 18 -14 15 2 52 -14 52 -22 0 -5 7 -9 16 -9 9 0 38 -22 65
-50 27 -27 46 -50 42 -50 -3 0 2 -9 12 -20 10 -11 14 -20 10 -20 -5 0 2 -11
14 -24 12 -13 23 -33 24 -45 1 -11 5 -21 9 -21 4 0 8 -25 8 -55 0 -30 4 -55 9
-55 5 0 9 -11 9 -25 0 -14 -4 -25 -9 -25 -5 0 -9 -18 -9 -40 0 -22 -4 -48 -9
-58 -10 -17 -22 -53 -22 -62 0 -3 -7 -12 -15 -21 -8 -9 -11 -19 -8 -22 4 -4
-1 -9 -10 -13 -9 -3 -13 -10 -10 -15 3 -5 -15 -29 -40 -54 -25 -25 -46 -42
-46 -38 0 3 -10 -3 -22 -14 -13 -11 -38 -26 -55 -33 -18 -7 -33 -16 -33 -20 0
-5 -11 -7 -24 -6 -14 2 -27 -2 -29 -8 -6 -16 -210 -13 -215 2 -2 7 -8 10 -13
7 -15 -10 -142 57 -176 92 -17 18 -37 33 -44 33 -7 0 -10 3 -7 6 4 3 -2 14
-13 25 -11 11 -17 24 -14 29 4 6 -1 10 -10 10 -10 0 -15 7 -13 18 2 9 -2 16
-9 15 -7 -2 -11 10 -10 30 1 21 -3 31 -11 29 -6 -1 -12 7 -12 19 0 13 4 18 13
13 9 -6 9 -5 0 8 -7 8 -14 27 -15 42 -1 14 -6 26 -11 26 -5 0 -4 7 3 15 9 11
9 19 2 28 -7 8 -7 17 2 29 7 9 11 33 10 52 -2 24 1 36 9 36 8 0 13 12 13 28
-1 15 4 26 10 25 6 -1 11 8 10 20 -1 13 4 21 12 20 10 -3 17 16 13 40 0 4 6 7
15 7 8 0 12 5 9 10 -3 6 -1 10 6 10 6 0 19 8 28 18 29 32 90 74 100 68 5 -3
12 1 15 10 3 8 10 13 15 10 5 -3 14 1 21 8 6 8 20 13 31 11 11 -2 22 1 25 8 6
17 204 14 214 -4z"/>
</g>
</svg>
